<?xml version="1.0" standalone="no"?>
<!DOCTYPE svg PUBLIC "-//W3C//DTD SVG 20010904//EN"
 "http://www.w3.org/TR/2001/REC-SVG-20010904/DTD/svg10.dtd">
<svg version="1.0" xmlns="http://www.w3.org/2000/svg"
 width="1236.000000pt" height="1236.000000pt" viewBox="0 0 1236.000000 1236.000000"
 preserveAspectRatio="xMidYMid meet">
<metadata>
Created by potrace 1.14, written by Peter Selinger 2001-2017
</metadata>
<g transform="translate(0.000000,1236.000000) scale(0.100000,-0.100000)"
fill="#000000" stroke="none">
<path d="M5840 10375 c-54 -21 -234 -86 -245 -89 -5 -2 -17 -5 -25 -8 -58 -22
-146 -53 -150 -54 -6 -1 -39 -13 -65 -24 -11 -5 -45 -16 -75 -26 -30 -9 -59
-19 -65 -22 -5 -3 -28 -7 -50 -9 -227 -14 -234 -15 -252 -26 -8 -5 -13 -3 -13
3 0 6 -5 8 -12 3 -7 -4 -24 -8 -38 -10 -14 -1 -45 -5 -70 -8 -53 -7 -130 -16
-147 -17 -7 -1 -13 -4 -13 -8 0 -3 -12 -6 -27 -6 -25 0 -76 -13 -123 -31 -8
-4 -18 -5 -22 -5 -5 1 -8 -3 -8 -9 0 -5 -4 -8 -9 -5 -14 9 -117 -79 -130 -112
-23 -56 -16 -126 20 -207 59 -128 216 -256 397 -322 37 -14 75 -27 86 -29 35
-7 28 -13 -30 -29 -33 -9 -81 -25 -108 -36 -27 -10 -56 -19 -65 -19 -10 0 -21
-4 -27 -10 -5 -5 -18 -11 -29 -13 -11 -2 -42 -13 -70 -26 -27 -13 -54 -24 -60
-25 -5 -1 -32 -12 -59 -24 -27 -12 -51 -22 -53 -22 -11 0 -309 -153 -324 -166
-8 -8 -19 -14 -24 -14 -5 0 -38 -19 -74 -42 -36 -23 -96 -61 -132 -85 -37 -23
-97 -53 -135 -66 -38 -14 -90 -33 -115 -43 l-46 -17 -104 79 c-57 43 -110 85
-117 92 -8 7 -47 31 -88 53 l-74 41 -85 171 c-121 246 -190 346 -307 446 -5 3
-29 33 -55 66 -158 200 -356 301 -518 262 -22 -5 -56 -9 -76 -8 -42 2 -65 -19
-74 -69 -8 -43 -8 -208 1 -221 3 -5 7 -24 9 -42 5 -37 23 -113 35 -142 4 -11
15 -41 25 -67 9 -27 22 -48 27 -48 6 0 9 -3 5 -6 -8 -8 24 -72 78 -154 34 -52
44 -77 48 -125 4 -33 9 -69 11 -80 12 -56 59 -205 75 -240 40 -88 37 -93 -21
-35 -100 100 -227 190 -271 190 -10 0 -42 25 -70 57 -113 123 -191 193 -213
193 -22 0 -42 -41 -65 -131 -11 -46 -22 -85 -23 -87 -2 -1 -30 12 -62 31 -73
41 -193 91 -270 113 -74 21 -256 24 -299 4 -16 -7 -33 -13 -36 -12 -4 1 -24
-14 -46 -33 -22 -19 -49 -33 -59 -33 -41 3 -92 -13 -113 -36 -99 -105 160
-468 532 -746 32 -24 73 -66 92 -94 35 -52 112 -136 124 -136 6 0 20 -34 35
-86 6 -20 3 -22 -66 -23 -113 -2 -178 -19 -238 -61 -14 -9 -45 -20 -70 -24
-58 -9 -126 -49 -145 -86 -45 -88 4 -176 238 -429 27 -28 53 -49 58 -45 5 3 8
2 7 -3 -6 -18 54 -76 193 -188 9 -7 45 -29 81 -49 55 -30 69 -44 92 -90 19
-37 70 -96 164 -190 75 -75 148 -143 162 -153 14 -9 37 -29 53 -45 15 -15 31
-28 35 -28 4 0 17 -11 30 -24 l23 -24 -24 -35 c-13 -19 -29 -48 -34 -63 -6
-16 -15 -38 -19 -49 -11 -31 -11 -37 4 -81 25 -77 185 -206 369 -299 74 -37
161 -126 210 -215 23 -41 59 -93 80 -114 48 -49 110 -89 125 -80 6 4 8 3 5 -3
-8 -12 18 -21 83 -29 25 -3 59 -14 75 -24 109 -66 206 -121 245 -138 113 -51
145 -62 176 -62 19 0 42 -4 52 -10 39 -21 635 -264 687 -279 22 -7 47 -15 55
-18 22 -9 39 -12 98 -17 29 -3 57 -8 61 -10 4 -3 22 -8 39 -11 17 -3 68 -14
114 -25 46 -11 101 -22 123 -26 22 -3 43 -8 48 -11 4 -2 20 -7 35 -9 70 -13
259 -53 272 -58 8 -3 29 -8 45 -10 17 -2 59 -9 95 -15 36 -6 83 -13 105 -17
22 -3 105 -21 185 -41 202 -48 221 -53 255 -59 17 -3 41 -9 55 -14 14 -5 50
-14 80 -20 30 -7 111 -27 180 -46 69 -18 141 -36 160 -39 19 -3 51 -10 70 -15
19 -5 55 -11 80 -14 25 -3 56 -8 69 -11 95 -18 339 -25 456 -12 39 5 95 10
125 12 52 3 173 13 250 21 38 3 112 10 200 18 103 10 175 17 260 27 47 5 108
12 135 15 97 10 172 19 240 30 17 3 46 7 65 9 104 12 140 18 140 25 0 3 14 5
30 2 17 -2 30 0 30 5 0 5 10 9 23 8 12 -1 36 2 52 6 17 5 41 10 55 13 53 9
119 26 146 37 16 6 36 12 44 14 29 5 95 18 105 21 6 1 21 4 35 7 106 22 244
68 380 126 67 29 190 67 245 75 11 2 20 4 20 6 0 1 24 3 52 6 47 3 59 0 106
-30 30 -19 94 -56 143 -82 49 -26 95 -54 102 -61 7 -7 17 -13 21 -13 14 0 80
-56 196 -164 153 -144 165 -154 245 -216 78 -60 291 -279 395 -405 22 -26 45
-53 50 -59 43 -44 285 -372 285 -384 0 -4 9 -14 20 -22 11 -8 20 -19 20 -24 0
-9 164 -268 184 -290 6 -7 16 -19 21 -28 27 -44 200 -283 207 -286 4 -2 8 -7
8 -12 0 -13 121 -180 131 -180 5 0 8 -3 7 -7 -2 -7 57 -100 71 -113 3 -3 22
-27 41 -55 19 -27 40 -56 47 -63 7 -7 13 -17 13 -22 0 -5 6 -15 13 -22 7 -7
28 -35 47 -63 49 -69 52 -74 77 -101 13 -14 22 -27 22 -30 -1 -6 46 -75 68
-98 6 -7 24 -31 40 -53 15 -22 43 -59 61 -84 18 -24 41 -55 50 -68 9 -13 27
-35 40 -49 12 -14 22 -29 22 -33 0 -4 11 -19 25 -33 14 -14 25 -29 25 -33 0
-4 11 -21 25 -38 13 -16 33 -41 44 -55 l20 -25 1 2870 0 2870 -193 195 c-281
285 -673 660 -699 669 -5 2 -22 15 -37 30 -61 61 -220 178 -264 194 -10 4 -61
37 -113 74 -53 38 -119 84 -148 103 -104 69 -142 93 -196 128 -30 19 -67 43
-82 53 -15 11 -30 19 -33 19 -3 0 -34 17 -69 39 -88 53 -268 143 -344 170 -34
13 -102 49 -150 81 -109 71 -307 179 -407 221 -26 10 -120 47 -165 64 -42 16
-166 54 -197 60 -13 3 -33 7 -45 10 -55 14 -197 37 -238 40 -25 2 -85 7 -135
11 -49 4 -100 8 -112 8 -13 1 -23 3 -23 6 0 3 -20 6 -44 8 -24 1 -54 5 -67 7
-32 7 -87 16 -113 19 -21 3 -48 14 -196 83 -91 43 -163 76 -170 78 -3 1 -22 9
-44 18 -21 9 -40 17 -42 17 -2 0 -27 11 -56 24 -65 29 -269 106 -358 134 -66
22 -97 29 -160 38 -155 22 -591 138 -627 167 -7 5 -13 7 -13 4 0 -4 -20 2 -45
13 -25 11 -47 20 -50 20 -6 1 -71 28 -135 58 -25 11 -65 27 -90 35 -39 13 -79
28 -155 56 -72 28 -92 34 -190 57 -58 14 -278 13 -315 -1z"/>
</g>
</svg>
